# xmcd CD database file
#
# Track frame offsets:
#	150
#	26915
#	58462
#	93212
#	126992
#	154090
#	192677
#	208013
#	235054
#	255883
#	270581
#	291333
#	314535
#	336809
#
# Disc length: 4818 seconds
#
# Revision: 0
# Processed by: cddbd v1.5.2PL0 Copyright (c) Steve Scherf et al.
# Submitted via: CDex 1.50beta10
#
DISCID=d612d00e
DTITLE=Bill Evans - The Ivory Hunters 16 Portrait In Jazz
DYEAR=1959
DGENRE=Jazz
TTITLE0=Honeysuckle Rose
TTITLE1=As Time Goes by
TTITLE2=The Way You Look Tonight
TTITLE3=It Could Happen To You
TTITLE4=The Man I Love
TTITLE5=I Got Rhythm
TTITLE6=Come Rain Or Come Shine
TTITLE7=Autumn Leaves
TTITLE8=Witchcraft
TTITLE9=Peri's Scope
TTITLE10=What Is This Thing Called Love
TTITLE11=Speing Is Here
TTITLE12=Someday My Prince Will Come
TTITLE13=Blue In Green
EXTD=YEAR: 1959
EXTT0=
EXTT1=
EXTT2=
EXTT3=
EXTT4=
EXTT5=
EXTT6=
EXTT7=
EXTT8=
EXTT9=
EXTT10=
EXTT11=
EXTT12=
EXTT13=
PLAYORDER=
